<svg xmlns="http://www.w3.org/2000/svg" viewBox="0 0 24 24" width="24" height="24" preserveAspectRatio="xMidYMid meet" style="width: 100%; height: 100%; transform: translate3d(0px, 0px, 0px);"><defs><clipPath id="__lottie_element_1853"><rect width="24" height="24" x="0" y="0"></rect></clipPath></defs><g clip-path="url(#__lottie_element_1853)"><g transform="matrix(1,0,0,1,12,12)" opacity="1" style="display: block;"><g opacity="1" transform="matrix(1,0,0,1,0,0)"><path fill="rgb(253,168,12)" fill-opacity="1" d=" M0,-12 C-6.630000114440918,-12 -12,-6.630000114440918 -12,0 C-12,6.630000114440918 -6.630000114440918,12 0,12 C6.630000114440918,12 12,6.630000114440918 12,0 C11.989999771118164,-6.619999885559082 6.619999885559082,-11.989999771118164 0,-12z"></path></g></g><g transform="matrix(1,0,0,1,11.805999755859375,-22.441001892089844)" opacity="1" style="display: block;"><g opacity="1" transform="matrix(1,0,0,1,0,0)"><path stroke-linecap="round" stroke-linejoin="round" fill-opacity="0" stroke="rgb(32,33,37)" stroke-opacity="1" stroke-width="0" d=" M4.236999988555908,37.05699920654297 C3.5350000858306885,36.994998931884766 -3.2309999465942383,36.92300033569336 -3.753000020980835,37.029998779296875 C-4.502999782562256,37.237998962402344 -4.293000221252441,37.94599914550781 -4.23199987411499,38.17599868774414 C-3.9830000400543213,39.11000061035156 -2.9010000228881836,41.54999923706055 0.17800000309944153,41.54999923706055 C3.256999969482422,41.54999923706055 4.486999988555908,39.10100173950195 4.686999797821045,38.19599914550781 C4.732999801635742,37.98699951171875 4.994999885559082,37.124000549316406 4.236999988555908,37.05699920654297z"></path><path fill="rgb(32,33,37)" fill-opacity="1" d=" M4.236999988555908,37.05699920654297 C3.5350000858306885,36.994998931884766 -3.2309999465942383,36.92300033569336 -3.753000020980835,37.029998779296875 C-4.502999782562256,37.237998962402344 -4.293000221252441,37.94599914550781 -4.23199987411499,38.17599868774414 C-3.9830000400543213,39.11000061035156 -2.9010000228881836,41.54999923706055 0.17800000309944153,41.54999923706055 C3.256999969482422,41.54999923706055 4.486999988555908,39.10100173950195 4.686999797821045,38.19599914550781 C4.732999801635742,37.98699951171875 4.994999885559082,37.124000549316406 4.236999988555908,37.05699920654297z"></path></g></g><g transform="matrix(1,0,0,1,15.824999809265137,-33.75)" opacity="1" style="display: block;"><g opacity="1" transform="matrix(1,0,0,1,0,0)"><path stroke-linecap="round" stroke-linejoin="miter" fill-opacity="0" stroke-miterlimit="4" stroke="rgb(32,33,37)" stroke-opacity="1" stroke-width="1.9" d=" M-1.2200000286102295,43.6879997253418 C-1.2200000286102295,43.6879997253418 -1.2619999647140503,41.801998138427734 0.4440000057220459,41.75 C2.1500000953674316,41.698001861572266 2.1519999504089355,43.68299865722656 2.1519999504089355,43.68299865722656"></path></g></g><g transform="matrix(1,0,0,1,7.225000381469727,-33.75)" opacity="1" style="display: block;"><g opacity="1" transform="matrix(1,0,0,1,0,0)"><path stroke-linecap="round" stroke-linejoin="miter" fill-opacity="0" stroke-miterlimit="4" stroke="rgb(32,33,37)" stroke-opacity="1" stroke-width="1.9" d=" M-1.2200000286102295,43.6879997253418 C-1.2200000286102295,43.6879997253418 -1.2619999647140503,41.801998138427734 0.4440000057220459,41.75 C2.1500000953674316,41.698001861572266 2.1519999504089355,43.68299865722656 2.1519999504089355,43.68299865722656"></path></g></g><g style="display: none;" transform="matrix(1,0,0,1,11.805999755859375,-22.387704849243164)" opacity="1"><g opacity="1" transform="matrix(1,0,0,1,0,0)"><path stroke-linecap="round" stroke-linejoin="round" fill-opacity="0" stroke="rgb(32,33,37)" stroke-opacity="1" stroke-width="0" d=" M4.236999988555908,37.05699920654297 C3.5350000858306885,36.994998931884766 -3.2309999465942383,36.92300033569336 -3.753000020980835,37.029998779296875 C-4.502999782562256,37.237998962402344 -4.293000221252441,37.94599914550781 -4.23199987411499,38.17599868774414 C-3.9830000400543213,39.11000061035156 -2.9010000228881836,41.54999923706055 0.17800000309944153,41.54999923706055 C3.256999969482422,41.54999923706055 4.486999988555908,39.10100173950195 4.686999797821045,38.19599914550781 C4.732999801635742,37.98699951171875 4.994999885559082,37.124000549316406 4.236999988555908,37.05699920654297z"></path><path fill="rgb(32,33,37)" fill-opacity="1" d=" M4.236999988555908,37.05699920654297 C3.5350000858306885,36.994998931884766 -3.2309999465942383,36.92300033569336 -3.753000020980835,37.029998779296875 C-4.502999782562256,37.237998962402344 -4.293000221252441,37.94599914550781 -4.23199987411499,38.17599868774414 C-3.9830000400543213,39.11000061035156 -2.9010000228881836,41.54999923706055 0.17800000309944153,41.54999923706055 C3.256999969482422,41.54999923706055 4.486999988555908,39.10100173950195 4.686999797821045,38.19599914550781 C4.732999801635742,37.98699951171875 4.994999885559082,37.124000549316406 4.236999988555908,37.05699920654297z"></path></g></g><g style="display: none;" transform="matrix(1.2500064373016357,0,0,1.2500064373016357,12.186775207519531,-29.492605209350586)" opacity="1"><g opacity="1" transform="matrix(1,0,0,1,0,0)"><path fill="rgb(32,33,37)" fill-opacity="1" d=" M-4.28000020980835,31.1200008392334 C-4.28000020980835,31.1200008392334 -4.040999889373779,31.30299949645996 -4.040999889373779,31.30299949645996 C-3.989000082015991,31.343000411987305 -3.9040000438690186,31.3439998626709 -3.8519999980926514,31.304000854492188 C-3.8519999980926514,31.304000854492188 -3.8519999980926514,31.30299949645996 -3.8519999980926514,31.30299949645996 C-3.8519999980926514,31.30299949645996 -3.61299991607666,31.1200008392334 -3.61299991607666,31.1200008392334 C-3.1410000324249268,30.756999969482422 -2.5209999084472656,30.60300064086914 -1.9040000438690186,31.118999481201172 C-1.597000002861023,31.358999252319336 -1.5549999475479126,32.13600158691406 -2.180999994277954,32.737998962402344 C-2.5429999828338623,33.13399887084961 -3.068000078201294,33.50199890136719 -3.4519999027252197,33.64799880981445 C-3.8359999656677246,33.79399871826172 -4.125,33.75899887084961 -4.48799991607666,33.625999450683594 C-4.85099983215332,33.49300003051758 -5.189000129699707,33.25 -5.6570000648498535,32.80500030517578 C-6.125999927520752,32.31999969482422 -6.238999843597412,31.525999069213867 -5.900000095367432,31.10700035095215 C-5.168000221252441,30.350000381469727 -4.372000217437744,31.048999786376953 -4.28000020980835,31.1200008392334z"></path></g></g><g style="display: none;" transform="matrix(1.2500064373016357,0,0,1.2500064373016357,21.78677749633789,-29.492605209350586)" opacity="1"><g opacity="1" transform="matrix(1,0,0,1,0,0)"><path fill="rgb(32,33,37)" fill-opacity="1" d=" M-4.28000020980835,31.1200008392334 C-4.28000020980835,31.1200008392334 -4.040999889373779,31.30299949645996 -4.040999889373779,31.30299949645996 C-3.989000082015991,31.343000411987305 -3.9040000438690186,31.3439998626709 -3.8519999980926514,31.304000854492188 C-3.8519999980926514,31.304000854492188 -3.8519999980926514,31.30299949645996 -3.8519999980926514,31.30299949645996 C-3.8519999980926514,31.30299949645996 -3.61299991607666,31.1200008392334 -3.61299991607666,31.1200008392334 C-3.1410000324249268,30.756999969482422 -2.5209999084472656,30.60300064086914 -1.9040000438690186,31.118999481201172 C-1.597000002861023,31.358999252319336 -1.5549999475479126,32.13600158691406 -2.180999994277954,32.737998962402344 C-2.5429999828338623,33.13399887084961 -3.068000078201294,33.50199890136719 -3.4519999027252197,33.64799880981445 C-3.8359999656677246,33.79399871826172 -4.125,33.75899887084961 -4.48799991607666,33.625999450683594 C-4.85099983215332,33.49300003051758 -5.189000129699707,33.25 -5.6570000648498535,32.80500030517578 C-6.125999927520752,32.31999969482422 -6.238999843597412,31.525999069213867 -5.900000095367432,31.10700035095215 C-5.168000221252441,30.350000381469727 -4.372000217437744,31.048999786376953 -4.28000020980835,31.1200008392334z"></path></g></g><g style="display: none;" transform="matrix(1,0,0,1,15.824999809265137,-33.65470886230469)" opacity="1"><g opacity="1" transform="matrix(1,0,0,1,0,0)"><path stroke-linecap="round" stroke-linejoin="miter" fill-opacity="0" stroke-miterlimit="4" stroke="rgb(32,33,37)" stroke-opacity="1" stroke-width="1.9" d=" M-1.2200000286102295,43.6879997253418 C-1.2200000286102295,43.6879997253418 -1.2619999647140503,41.801998138427734 0.4440000057220459,41.75 C2.1500000953674316,41.698001861572266 2.1519999504089355,43.68299865722656 2.1519999504089355,43.68299865722656"></path></g><g opacity="0" transform="matrix(1,0,0,1,0,0)"><path fill="rgb(32,33,37)" fill-opacity="1" d=" M0.39399999380111694,40.82500076293945 C-0.4009999930858612,40.840999603271484 -0.9309999942779541,41.095001220703125 -1.3329999446868896,41.599998474121094 C-2.263000011444092,42.766998291015625 -2.5820000171661377,44.604000091552734 -1.190999984741211,44.58700180053711 C0.20000000298023224,44.56999969482422 -0.800000011920929,42.66999816894531 0.44999998807907104,42.62799835205078 C1.7000000476837158,42.58599853515625 0.7149999737739563,44.6879997253418 2.1689999103546143,44.595001220703125 C3.2130000591278076,44.62200164794922 3.4749999046325684,43.18199920654297 2.315000057220459,41.65399932861328 C1.934999942779541,41.15299987792969 1.1670000553131104,40.808998107910156 0.39399999380111694,40.82500076293945z"></path></g></g><g style="display: none;" transform="matrix(1,0,0,1,7.225000381469727,-33.65470886230469)" opacity="1"><g opacity="1" transform="matrix(1,0,0,1,0,0)"><path stroke-linecap="round" stroke-linejoin="miter" fill-opacity="0" stroke-miterlimit="4" stroke="rgb(32,33,37)" stroke-opacity="1" stroke-width="1.9" d=" M-1.2200000286102295,43.6879997253418 C-1.2200000286102295,43.6879997253418 -1.2619999647140503,41.801998138427734 0.4440000057220459,41.75 C2.1500000953674316,41.698001861572266 2.1519999504089355,43.68299865722656 2.1519999504089355,43.68299865722656"></path></g><g opacity="0" transform="matrix(1,0,0,1,0,0)"><path fill="rgb(32,33,37)" fill-opacity="1" d=" M0.39399999380111694,40.82500076293945 C-0.4009999930858612,40.840999603271484 -0.9309999942779541,41.095001220703125 -1.3329999446868896,41.599998474121094 C-2.263000011444092,42.766998291015625 -2.5820000171661377,44.604000091552734 -1.190999984741211,44.58700180053711 C0.20000000298023224,44.56999969482422 -0.800000011920929,42.66999816894531 0.44999998807907104,42.62799835205078 C1.7000000476837158,42.58599853515625 0.7149999737739563,44.6879997253418 2.1689999103546143,44.595001220703125 C3.2130000591278076,44.62200164794922 3.4749999046325684,43.18199920654297 2.315000057220459,41.65399932861328 C1.934999942779541,41.15299987792969 1.1670000553131104,40.808998107910156 0.39399999380111694,40.82500076293945z"></path></g></g></g></svg>