<svg xmlns="http://www.w3.org/2000/svg" viewBox="0 0 24 24" width="24" height="24" preserveAspectRatio="xMidYMid meet" style="width: 100%; height: 100%; transform: translate3d(0px, 0px, 0px);"><defs><clipPath id="__lottie_element_2550"><rect width="24" height="24" x="0" y="0"></rect></clipPath></defs><g clip-path="url(#__lottie_element_2550)"><g transform="matrix(1,0,0,1,12,12)" opacity="1" style="display: block;"><g opacity="1" transform="matrix(1,0,0,1,0,0)"><path fill="rgb(253,168,12)" fill-opacity="1" d=" M0,-12 C-6.630000114440918,-12 -12,-6.630000114440918 -12,0 C-12,6.630000114440918 -6.630000114440918,12 0,12 C6.630000114440918,12 12,6.630000114440918 12,0 C11.989999771118164,-6.619999885559082 6.619999885559082,-11.989999771118164 0,-12z"></path></g><g opacity="1" transform="matrix(1,0,0,1,0,0)"><path fill="rgb(253,168,12)" fill-opacity="1" d=" M-23.5,-8.050000190734863"></path><path stroke-linecap="butt" stroke-linejoin="miter" fill-opacity="0" stroke-miterlimit="4" stroke="rgb(32,33,37)" stroke-opacity="1" stroke-width="2" d=" M-23.5,-8.050000190734863"></path></g><g opacity="1" transform="matrix(1,0,0,1,0,0)"><path fill="rgb(253,168,12)" fill-opacity="1" d=" M-20.399999618530273,-7.400000095367432"></path><path stroke-linecap="butt" stroke-linejoin="miter" fill-opacity="0" stroke-miterlimit="4" stroke="rgb(32,33,37)" stroke-opacity="1" stroke-width="2" d=" M-20.399999618530273,-7.400000095367432"></path></g></g><g transform="matrix(1,0,0,1,11.800000190734863,-25.299999237060547)" opacity="1" style="display: block;"><g opacity="1" transform="matrix(1,0,0,1,0,0)"><path stroke-linecap="round" stroke-linejoin="miter" fill-opacity="0" stroke-miterlimit="4" stroke="rgb(32,33,37)" stroke-opacity="1" stroke-width="1.9" d=" M-3.825000047683716,40.33000183105469 C-3.825000047683716,40.33000183105469 -2.7760000228881836,42.849998474121094 0.23800000548362732,42.840999603271484 C2.9590001106262207,42.83300018310547 4.300000190734863,40.275001525878906 4.300000190734863,40.275001525878906"></path></g></g><g transform="matrix(1.2999999523162842,0,0,1.2999999523162842,8.820199966430664,11.790199279785156)" opacity="1" style="display: block;"><g opacity="1" transform="matrix(1,0,0,1,-46.5,-35.5)"><path fill="rgb(32,33,37)" fill-opacity="1" d=" M45.84600067138672,31.805999755859375 C45.04600143432617,31.805999755859375 44.39799880981445,32.45399856567383 44.39799880981445,33.25400161743164 C44.39799880981445,34.05400085449219 45.04600143432617,34.70199966430664 45.84600067138672,34.70199966430664 C46.645999908447266,34.70199966430664 47.29399871826172,34.05400085449219 47.29399871826172,33.25400161743164 C47.29399871826172,32.45399856567383 46.645999908447266,31.805999755859375 45.84600067138672,31.805999755859375z"></path><path stroke-linecap="butt" stroke-linejoin="round" fill-opacity="0" stroke="rgb(32,33,37)" stroke-opacity="1" stroke-width="0" d=" M45.84600067138672,31.805999755859375 C45.04600143432617,31.805999755859375 44.39799880981445,32.45399856567383 44.39799880981445,33.25400161743164 C44.39799880981445,34.05400085449219 45.04600143432617,34.70199966430664 45.84600067138672,34.70199966430664 C46.645999908447266,34.70199966430664 47.29399871826172,34.05400085449219 47.29399871826172,33.25400161743164 C47.29399871826172,32.45399856567383 46.645999908447266,31.805999755859375 45.84600067138672,31.805999755859375z"></path></g></g><g transform="matrix(1.2999999523162842,0,0,1.2999999523162842,16.820199966430664,11.790199279785156)" opacity="1" style="display: block;"><g opacity="1" transform="matrix(1,0,0,1,-46.5,-35.5)"><path fill="rgb(32,33,37)" fill-opacity="1" d=" M45.84600067138672,31.805999755859375 C45.04600143432617,31.805999755859375 44.39799880981445,32.45399856567383 44.39799880981445,33.25400161743164 C44.39799880981445,34.05400085449219 45.04600143432617,34.70199966430664 45.84600067138672,34.70199966430664 C46.645999908447266,34.70199966430664 47.29399871826172,34.05400085449219 47.29399871826172,33.25400161743164 C47.29399871826172,32.45399856567383 46.645999908447266,31.805999755859375 45.84600067138672,31.805999755859375z"></path><path stroke-linecap="butt" stroke-linejoin="round" fill-opacity="0" stroke="rgb(32,33,37)" stroke-opacity="1" stroke-width="0" d=" M45.84600067138672,31.805999755859375 C45.04600143432617,31.805999755859375 44.39799880981445,32.45399856567383 44.39799880981445,33.25400161743164 C44.39799880981445,34.05400085449219 45.04600143432617,34.70199966430664 45.84600067138672,34.70199966430664 C46.645999908447266,34.70199966430664 47.29399871826172,34.05400085449219 47.29399871826172,33.25400161743164 C47.29399871826172,32.45399856567383 46.645999908447266,31.805999755859375 45.84600067138672,31.805999755859375z"></path></g></g><g transform="matrix(0.9993898272514343,0.03489946201443672,-0.03489946201443672,0.9993898272514343,9.163056373596191,-35.60539627075195)" opacity="1" style="display: none;"><g opacity="1" transform="matrix(1,0,0,1,0,0)"><path stroke-linecap="round" stroke-linejoin="miter" fill-opacity="0" stroke-miterlimit="4" stroke="rgb(32,33,37)" stroke-opacity="1" stroke-width="1.9" d=" M-1.0019999742507935,42.68000030517578 C-0.7910000085830688,42.22200012207031 -0.37400001287460327,41.775001525878906 0.4440000057220459,41.75 C1.284999966621399,41.7239990234375 1.7109999656677246,42.19300079345703 1.9279999732971191,42.67599868774414"></path></g></g><g transform="matrix(0.9993898272514343,0.03489946201443672,-0.03489946201443672,0.9993898272514343,17.15818214416504,-35.32619857788086)" opacity="1" style="display: none;"><g opacity="1" transform="matrix(1,0,0,1,0,0)"><path stroke-linecap="round" stroke-linejoin="miter" fill-opacity="0" stroke-miterlimit="4" stroke="rgb(32,33,37)" stroke-opacity="1" stroke-width="1.9" d=" M-1.0019999742507935,42.68000030517578 C-0.7910000085830688,42.22200012207031 -0.37400001287460327,41.775001525878906 0.4440000057220459,41.75 C1.284999966621399,41.7239990234375 1.7109999656677246,42.19300079345703 1.9279999732971191,42.67599868774414"></path></g></g><g transform="matrix(1.2999999523162842,0,0,1.2999999523162842,8.81219482421875,11.883199691772461)" opacity="1" style="display: none;"><g opacity="1" transform="matrix(1,0,0,1,-46.5,-35.5)"><path fill="rgb(32,33,37)" fill-opacity="1" d=" M45.84600067138672,31.805999755859375 C45.04600143432617,31.805999755859375 44.39799880981445,32.45399856567383 44.39799880981445,33.25400161743164 C44.39799880981445,34.05400085449219 45.04600143432617,34.70199966430664 45.84600067138672,34.70199966430664 C46.645999908447266,34.70199966430664 47.29399871826172,34.05400085449219 47.29399871826172,33.25400161743164 C47.29399871826172,32.45399856567383 46.645999908447266,31.805999755859375 45.84600067138672,31.805999755859375z"></path><path stroke-linecap="butt" stroke-linejoin="round" fill-opacity="0" stroke="rgb(32,33,37)" stroke-opacity="1" stroke-width="0" d=" M45.84600067138672,31.805999755859375 C45.04600143432617,31.805999755859375 44.39799880981445,32.45399856567383 44.39799880981445,33.25400161743164 C44.39799880981445,34.05400085449219 45.04600143432617,34.70199966430664 45.84600067138672,34.70199966430664 C46.645999908447266,34.70199966430664 47.29399871826172,34.05400085449219 47.29399871826172,33.25400161743164 C47.29399871826172,32.45399856567383 46.645999908447266,31.805999755859375 45.84600067138672,31.805999755859375z"></path></g></g><g transform="matrix(1.2999999523162842,0,0,1.2999999523162842,16.811195373535156,11.799200057983398)" opacity="1" style="display: none;"><g opacity="1" transform="matrix(1,0,0,1,-46.5,-35.5)"><path fill="rgb(32,33,37)" fill-opacity="1" d=" M45.84600067138672,31.805999755859375 C45.04600143432617,31.805999755859375 44.39799880981445,32.45399856567383 44.39799880981445,33.25400161743164 C44.39799880981445,34.05400085449219 45.04600143432617,34.70199966430664 45.84600067138672,34.70199966430664 C46.645999908447266,34.70199966430664 47.29399871826172,34.05400085449219 47.29399871826172,33.25400161743164 C47.29399871826172,32.45399856567383 46.645999908447266,31.805999755859375 45.84600067138672,31.805999755859375z"></path><path stroke-linecap="butt" stroke-linejoin="round" fill-opacity="0" stroke="rgb(32,33,37)" stroke-opacity="1" stroke-width="0" d=" M45.84600067138672,31.805999755859375 C45.04600143432617,31.805999755859375 44.39799880981445,32.45399856567383 44.39799880981445,33.25400161743164 C44.39799880981445,34.05400085449219 45.04600143432617,34.70199966430664 45.84600067138672,34.70199966430664 C46.645999908447266,34.70199966430664 47.29399871826172,34.05400085449219 47.29399871826172,33.25400161743164 C47.29399871826172,32.45399856567383 46.645999908447266,31.805999755859375 45.84600067138672,31.805999755859375z"></path></g></g></g></svg>